<svg width="44" height="44" viewBox="0 0 44 44" fill="none" xmlns="http://www.w3.org/2000/svg">
<g clip-path="url(#clip0_2303_6906)">
<path d="M33.6848 29.5081C33.9269 29.6942 34.0853 29.9688 34.1253 30.2716C34.1653 30.5745 34.0836 30.8808 33.8982 31.1235C32.3475 33.1478 30.3064 34.7432 27.9678 35.759C25.6291 36.7747 23.0702 37.1772 20.5328 36.9285C17.9954 36.6797 15.5634 35.7879 13.4664 34.3374C11.3694 32.8868 9.67676 30.9254 8.54843 28.6384C7.42011 26.3514 6.89334 23.8144 7.01791 21.2671C7.14248 18.7198 7.91427 16.2464 9.26036 14.0805C10.6064 11.9146 12.4824 10.1277 14.7109 8.88882C16.9394 7.64991 19.4469 6.99983 21.9964 7C22.3024 7 22.5958 7.12157 22.8121 7.33795C23.0284 7.55434 23.1499 7.84783 23.1499 8.15385C23.1499 8.45986 23.0284 8.75335 22.8121 8.96974C22.5958 9.18613 22.3024 9.30769 21.9964 9.30769C19.8392 9.30769 17.7176 9.85787 15.832 10.9062C13.9465 11.9546 12.3593 13.4666 11.2204 15.2993C10.0815 17.1319 9.42849 19.2248 9.32314 21.3801C9.21778 23.5355 9.66353 25.6821 10.6182 27.6172C11.573 29.5522 13.0051 31.2119 14.7795 32.4393C16.5538 33.6666 18.6116 34.4212 20.7586 34.6318C22.9055 34.8423 25.0707 34.5018 27.0495 33.6424C29.0283 32.783 30.7554 31.4332 32.0676 29.7204C32.2539 29.4777 32.529 29.3191 32.8323 29.2793C33.1355 29.2394 33.4422 29.3217 33.6848 29.5081ZM33.2857 15.1346C33.5244 15.1334 33.7573 15.0611 33.9547 14.9269C34.2033 14.7474 34.3708 14.4767 34.4205 14.174C34.4702 13.8713 34.3981 13.5612 34.22 13.3115C34.1051 13.1502 33.9507 13.0211 33.7715 12.9367C33.5922 12.8524 33.3943 12.8156 33.1968 12.83C32.9993 12.8443 32.8088 12.9093 32.6436 13.0187C32.4785 13.128 32.3443 13.2781 32.2539 13.4544C32.1636 13.6307 32.1201 13.8273 32.1277 14.0253C32.1354 14.2232 32.1938 14.4159 32.2975 14.5847C32.4012 14.7535 32.5465 14.8928 32.7196 14.9891C32.8927 15.0854 33.0876 15.1355 33.2857 15.1346ZM35.858 21.0885C35.7065 21.0854 35.5559 21.1122 35.4148 21.1674C35.2736 21.2226 35.1448 21.305 35.0355 21.41C34.9263 21.515 34.8387 21.6405 34.778 21.7794C34.7172 21.9182 34.6844 22.0677 34.6814 22.2192V22.2308C34.679 22.3816 34.7063 22.5314 34.7618 22.6716C34.8173 22.8119 34.9 22.9398 35.005 23.048C35.11 23.1563 35.2353 23.2427 35.3737 23.3025C35.5122 23.3622 35.6611 23.394 35.8118 23.3962H35.8349C35.9864 23.3977 36.1367 23.3693 36.2772 23.3127C36.4177 23.2562 36.5457 23.1724 36.6539 23.0664C36.7621 22.9603 36.8484 22.8339 36.9077 22.6945C36.9671 22.5551 36.9984 22.4054 36.9999 22.2538C37.0015 22.1023 36.9731 21.952 36.9165 21.8114C36.86 21.6708 36.7763 21.5428 36.6702 21.4346C36.5642 21.3264 36.4379 21.2401 36.2985 21.1807C36.1592 21.1213 36.0095 21.09 35.858 21.0885ZM30.2174 12.0077C30.4145 12.0072 30.6082 11.9562 30.78 11.8595C30.9517 11.7628 31.0959 11.6237 31.1987 11.4555C31.3014 11.2873 31.3594 11.0955 31.367 10.8985C31.3746 10.7014 31.3317 10.5058 31.2422 10.3301C31.1527 10.1544 31.0198 10.0046 30.856 9.89494C30.6922 9.78528 30.503 9.71943 30.3065 9.70369C30.11 9.68794 29.9128 9.72282 29.7337 9.80499C29.5545 9.88716 29.3994 10.0139 29.2831 10.1731C29.1572 10.3453 29.0816 10.5491 29.0646 10.7617C29.0476 10.9743 29.0898 11.1875 29.1866 11.3776C29.2834 11.5677 29.431 11.7272 29.6129 11.8384C29.7949 11.9497 30.0041 12.0082 30.2174 12.0077ZM34.1162 18.25C34.1902 18.4854 34.3377 18.6908 34.537 18.8362C34.7363 18.9816 34.9769 19.0592 35.2236 19.0577C35.3368 19.0602 35.4497 19.0446 35.5581 19.0115C35.7761 18.9443 35.9693 18.8138 36.1133 18.6367C36.2572 18.4596 36.3454 18.2437 36.3666 18.0165C36.3879 17.7892 36.3413 17.5607 36.2327 17.36C36.1242 17.1592 35.9585 16.9952 35.7567 16.8886C35.5549 16.782 35.3261 16.7377 35.0991 16.7612C34.8722 16.7848 34.6573 16.8752 34.4817 17.0209C34.306 17.1666 34.1776 17.3612 34.1125 17.58C34.0475 17.7988 34.0488 18.0319 34.1162 18.25ZM26.3301 10C26.5428 10.0002 26.7515 9.94147 26.9329 9.83044C27.1144 9.7194 27.2616 9.56033 27.3583 9.37082C27.455 9.18131 27.4975 8.96874 27.481 8.7566C27.4645 8.54446 27.3896 8.34102 27.2648 8.16877C27.1399 7.99651 26.9698 7.86216 26.7734 7.78055C26.5769 7.69894 26.3617 7.67326 26.1516 7.70634C25.9415 7.73943 25.7446 7.82999 25.5827 7.96802C25.4208 8.10604 25.3002 8.28616 25.2343 8.48846C25.1794 8.66158 25.1659 8.84516 25.1949 9.02444C25.2239 9.20372 25.2945 9.37371 25.4011 9.52073C25.5076 9.66775 25.6472 9.7877 25.8086 9.87094C25.9699 9.95418 26.1486 9.99838 26.3301 10ZM35.4543 25.4731C35.3111 25.4219 35.1593 25.3995 35.0075 25.4072C34.8557 25.4149 34.707 25.4526 34.5698 25.518C34.4325 25.5834 34.3096 25.6753 34.208 25.7884C34.1064 25.9014 34.0282 26.0335 33.9778 26.1769C33.919 26.3514 33.9024 26.5373 33.9295 26.7195C33.9566 26.9016 34.0264 27.0747 34.1334 27.2245C34.2404 27.3743 34.3814 27.4966 34.5449 27.5813C34.7083 27.6659 34.8895 27.7106 35.0736 27.7115C35.3438 27.7086 35.6044 27.6108 35.8099 27.4353C36.0154 27.2598 36.1528 27.0177 36.1981 26.7513C36.2434 26.4848 36.1937 26.2109 36.0578 25.9773C35.9219 25.7437 35.7083 25.5652 35.4543 25.4731ZM23.1349 13.24C23.1349 12.934 23.0134 12.6405 22.7971 12.4241C22.5808 12.2077 22.2874 12.0862 21.9814 12.0862C21.6755 12.0862 21.3821 12.2077 21.1658 12.4241C20.9495 12.6405 20.828 12.934 20.828 13.24V22C20.828 22.2394 20.9026 22.4729 21.0413 22.6681C21.18 22.8633 21.3759 23.0105 21.6019 23.0892L27.7858 25.2435C27.929 25.2937 28.0807 25.3152 28.2322 25.3067C28.3837 25.2982 28.5321 25.2599 28.6688 25.194C28.8054 25.1281 28.9278 25.0358 29.0287 24.9225C29.1297 24.8092 29.2074 24.6771 29.2572 24.5337C29.3071 24.3904 29.3281 24.2386 29.3192 24.087C29.3103 23.9355 29.2716 23.7872 29.2054 23.6507C29.1391 23.5141 29.0465 23.392 28.933 23.2913C28.8194 23.1906 28.6871 23.1133 28.5437 23.0638L23.1349 21.1796V13.24Z" fill="black"/>
</g>
<defs>
<clipPath id="clip0_2303_6906">
<rect width="44" height="44" rx="22" fill="white"/>
</clipPath>
</defs>
</svg>
