<svg width="44" height="44" viewBox="0 0 44 44" fill="none" xmlns="http://www.w3.org/2000/svg">
<g clip-path="url(#clip0_2303_6906)">
<path d="M33.6848 36.5081C33.9269 36.6942 34.0853 36.9688 34.1253 37.2716C34.1653 37.5745 34.0836 37.8808 33.8982 38.1235C32.3475 40.1478 30.3064 41.7432 27.9678 42.759C25.6291 43.7747 23.0702 44.1772 20.5328 43.9285C17.9954 43.6797 15.5634 42.7879 13.4664 41.3374C11.3694 39.8868 9.67676 37.9254 8.54843 35.6384C7.42011 33.3514 6.89334 30.8144 7.01791 28.2671C7.14248 25.7198 7.91427 23.2464 9.26036 21.0805C10.6064 18.9146 12.4824 17.1277 14.7109 15.8888C16.9394 14.6499 19.4469 13.9998 21.9964 14C22.3024 14 22.5958 14.1216 22.8121 14.338C23.0284 14.5543 23.1499 14.8478 23.1499 15.1538C23.1499 15.4599 23.0284 15.7534 22.8121 15.9697C22.5958 16.1861 22.3024 16.3077 21.9964 16.3077C19.8392 16.3077 17.7176 16.8579 15.832 17.9062C13.9465 18.9546 12.3593 20.4666 11.2204 22.2993C10.0815 24.1319 9.42849 26.2248 9.32314 28.3801C9.21778 30.5355 9.66353 32.6821 10.6182 34.6172C11.573 36.5522 13.0051 38.2119 14.7795 39.4393C16.5538 40.6666 18.6116 41.4212 20.7586 41.6318C22.9055 41.8423 25.0707 41.5018 27.0495 40.6424C29.0283 39.783 30.7554 38.4332 32.0676 36.7204C32.2539 36.4777 32.529 36.3191 32.8323 36.2793C33.1355 36.2394 33.4422 36.3217 33.6848 36.5081ZM33.2857 22.1346C33.5244 22.1334 33.7573 22.0611 33.9547 21.9269C34.2033 21.7474 34.3708 21.4767 34.4205 21.174C34.4702 20.8713 34.3981 20.5612 34.22 20.3115C34.1051 20.1502 33.9507 20.0211 33.7715 19.9367C33.5922 19.8524 33.3943 19.8156 33.1968 19.83C32.9993 19.8443 32.8088 19.9093 32.6436 20.0187C32.4785 20.128 32.3443 20.2781 32.2539 20.4544C32.1636 20.6307 32.1201 20.8273 32.1277 21.0253C32.1354 21.2232 32.1938 21.4159 32.2975 21.5847C32.4012 21.7535 32.5465 21.8928 32.7196 21.9891C32.8927 22.0854 33.0876 22.1355 33.2857 22.1346ZM35.858 28.0885C35.7065 28.0854 35.5559 28.1122 35.4148 28.1674C35.2736 28.2226 35.1448 28.305 35.0355 28.41C34.9263 28.515 34.8387 28.6405 34.778 28.7794C34.7172 28.9182 34.6844 29.0677 34.6814 29.2192V29.2308C34.679 29.3816 34.7063 29.5314 34.7618 29.6716C34.8173 29.8119 34.9 29.9398 35.005 30.048C35.11 30.1563 35.2353 30.2427 35.3737 30.3025C35.5122 30.3622 35.6611 30.394 35.8118 30.3962H35.8349C35.9864 30.3977 36.1367 30.3693 36.2772 30.3127C36.4177 30.2562 36.5457 30.1724 36.6539 30.0664C36.7621 29.9603 36.8484 29.8339 36.9077 29.6945C36.9671 29.5551 36.9984 29.4054 36.9999 29.2538C37.0015 29.1023 36.9731 28.952 36.9165 28.8114C36.86 28.6708 36.7763 28.5428 36.6702 28.4346C36.5642 28.3264 36.4379 28.2401 36.2985 28.1807C36.1592 28.1213 36.0095 28.09 35.858 28.0885ZM30.2174 19.0077C30.4145 19.0072 30.6082 18.9562 30.78 18.8595C30.9517 18.7628 31.0959 18.6237 31.1987 18.4555C31.3014 18.2873 31.3594 18.0955 31.367 17.8985C31.3746 17.7014 31.3317 17.5058 31.2422 17.3301C31.1527 17.1544 31.0198 17.0046 30.856 16.8949C30.6921 16.7853 30.503 16.7194 30.3065 16.7037C30.11 16.6879 29.9128 16.7228 29.7336 16.805C29.5545 16.8872 29.3994 17.0139 29.2831 17.1731C29.1572 17.3453 29.0816 17.5491 29.0646 17.7617C29.0476 17.9743 29.0898 18.1875 29.1866 18.3776C29.2834 18.5677 29.431 18.7272 29.6129 18.8384C29.7949 18.9497 30.0041 19.0082 30.2174 19.0077ZM34.1162 25.25C34.1902 25.4854 34.3377 25.6908 34.537 25.8362C34.7363 25.9816 34.9769 26.0592 35.2236 26.0577C35.3368 26.0602 35.4497 26.0446 35.5581 26.0115C35.7761 25.9443 35.9693 25.8138 36.1133 25.6367C36.2572 25.4596 36.3454 25.2437 36.3666 25.0165C36.3879 24.7892 36.3413 24.5607 36.2327 24.36C36.1242 24.1592 35.9585 23.9952 35.7567 23.8886C35.5549 23.782 35.3261 23.7377 35.0991 23.7612C34.8722 23.7848 34.6573 23.8752 34.4817 24.0209C34.306 24.1666 34.1776 24.3612 34.1125 24.58C34.0475 24.7988 34.0488 25.0319 34.1162 25.25ZM26.3301 17C26.5428 17.0002 26.7515 16.9415 26.9329 16.8304C27.1144 16.7194 27.2616 16.5603 27.3583 16.3708C27.455 16.1813 27.4975 15.9687 27.481 15.7566C27.4645 15.5445 27.3896 15.341 27.2648 15.1688C27.1399 14.9965 26.9698 14.8622 26.7734 14.7805C26.5769 14.6989 26.3617 14.6733 26.1516 14.7063C25.9415 14.7394 25.7446 14.83 25.5827 14.968C25.4208 15.106 25.3002 15.2862 25.2343 15.4885C25.1794 15.6616 25.1659 15.8452 25.1949 16.0244C25.2239 16.2037 25.2945 16.3737 25.4011 16.5207C25.5076 16.6677 25.6472 16.7877 25.8086 16.8709C25.9699 16.9542 26.1486 16.9984 26.3301 17ZM35.4543 32.4731C35.3111 32.4219 35.1593 32.3995 35.0075 32.4072C34.8557 32.4149 34.707 32.4526 34.5698 32.518C34.4325 32.5834 34.3096 32.6753 34.208 32.7884C34.1064 32.9014 34.0282 33.0335 33.9778 33.1769C33.919 33.3514 33.9024 33.5373 33.9295 33.7195C33.9566 33.9016 34.0264 34.0747 34.1334 34.2245C34.2404 34.3743 34.3814 34.4966 34.5449 34.5813C34.7083 34.6659 34.8895 34.7106 35.0736 34.7115C35.3438 34.7086 35.6044 34.6108 35.8099 34.4353C36.0154 34.2598 36.1528 34.0177 36.1981 33.7513C36.2434 33.4848 36.1937 33.2109 36.0578 32.9773C35.9219 32.7437 35.7083 32.5652 35.4543 32.4731ZM23.1349 20.24C23.1349 19.934 23.0134 19.6405 22.7971 19.4241C22.5808 19.2077 22.2874 19.0862 21.9814 19.0862C21.6755 19.0862 21.3821 19.2077 21.1658 19.4241C20.9495 19.6405 20.828 19.934 20.828 20.24V29C20.828 29.2394 20.9026 29.4729 21.0413 29.6681C21.18 29.8633 21.3759 30.0105 21.6019 30.0892L27.7858 32.2435C27.929 32.2937 28.0807 32.3152 28.2322 32.3067C28.3837 32.2982 28.5321 32.2599 28.6688 32.194C28.8054 32.1281 28.9278 32.0358 29.0288 31.9225C29.1297 31.8092 29.2074 31.6771 29.2572 31.5337C29.3071 31.3904 29.3281 31.2386 29.3192 31.087C29.3103 30.9355 29.2716 30.7872 29.2054 30.6507C29.1391 30.5141 29.0465 30.392 28.933 30.2913C28.8194 30.1906 28.6871 30.1133 28.5437 30.0638L23.1349 28.1796V20.24Z" fill="black"/>
</g>
<defs>
<clipPath id="clip0_2303_6906">
<rect width="44" height="44" rx="22" fill="white"/>
</clipPath>
</defs>
</svg>
